<svg width="19" height="20" viewBox="0 0 19 20" fill="none" xmlns="http://www.w3.org/2000/svg">
<path d="M13.4421 4.95757C13.4421 4.40528 13.8898 3.95757 14.4421 3.95757C14.9944 3.95757 15.4421 4.40528 15.4421 4.95757C15.4421 5.50985 14.9944 5.95757 14.4421 5.95757C13.8898 5.95757 13.4421 5.50985 13.4421 4.95757Z" fill="#121212"/>
<path fill-rule="evenodd" clip-rule="evenodd" d="M9.44208 5.20757C6.81873 5.20757 4.69208 7.33421 4.69208 9.95757C4.69208 12.5809 6.81873 14.7076 9.44208 14.7076C12.0654 14.7076 14.1921 12.5809 14.1921 9.95757C14.1921 7.33421 12.0654 5.20757 9.44208 5.20757ZM6.19208 9.95757C6.19208 8.16264 7.64715 6.70757 9.44208 6.70757C11.237 6.70757 12.6921 8.16264 12.6921 9.95757C12.6921 11.7525 11.237 13.2076 9.44208 13.2076C7.64715 13.2076 6.19208 11.7525 6.19208 9.95757Z" fill="#121212"/>
<path fill-rule="evenodd" clip-rule="evenodd" d="M14.7003 0.790581C11.2338 0.40314 7.65042 0.40314 4.18385 0.790581C2.17179 1.01546 0.547457 2.60047 0.310903 4.623C-0.103634 8.1673 -0.103635 11.7478 0.310903 15.2921C0.547457 17.3147 2.17179 18.8997 4.18385 19.1245C7.65042 19.512 11.2338 19.512 14.7003 19.1245C16.7124 18.8997 18.3367 17.3147 18.5733 15.2921C18.9878 11.7478 18.9878 8.16729 18.5733 4.623C18.3367 2.60047 16.7124 1.01546 14.7003 0.790581ZM4.35046 2.2813C7.7063 1.90623 11.1779 1.90623 14.5337 2.2813C15.8638 2.42996 16.9293 3.47957 17.0834 4.79725C17.4844 8.22577 17.4844 11.6894 17.0834 15.1179C16.9293 16.4356 15.8638 17.4852 14.5337 17.6338C11.1779 18.0089 7.7063 18.0089 4.35046 17.6338C3.02035 17.4852 1.95486 16.4356 1.80075 15.1179C1.39975 11.6894 1.39975 8.22577 1.80075 4.79725C1.95486 3.47957 3.02035 2.42996 4.35046 2.2813Z" fill="#121212"/>
</svg>
