<svg width="20" height="20" viewBox="0 0 20 20" fill="none" xmlns="http://www.w3.org/2000/svg">
<path fill-rule="evenodd" clip-rule="evenodd" d="M9.75 0.5C4.36522 0.5 0 4.86522 0 10.25C0 15.6348 4.36522 20 9.75 20C15.1348 20 19.5 15.6348 19.5 10.25C19.5 4.86522 15.1348 0.5 9.75 0.5ZM1.5 10.25C1.5 5.69365 5.19365 2 9.75 2C14.3063 2 18 5.69365 18 10.25C18 14.8063 14.3063 18.5 9.75 18.5C8.89272 18.5 8.06599 18.3692 7.28865 18.1266C7.71125 17.463 8.04734 16.748 8.28871 15.9991L8.80527 14.0219C9.01869 14.3265 9.30482 14.5729 9.63766 14.7388C9.97051 14.9047 10.3395 14.9848 10.7112 14.9719C13.2465 14.9719 15.0278 12.6681 15.0278 9.80626C15.0278 7.05719 12.7834 5.00282 9.90371 5.00282C6.31746 5.00282 4.41152 7.41344 4.41152 10.0319C4.41152 11.255 5.05871 12.7691 6.09777 13.2559C6.25214 13.3272 6.35308 13.2559 6.37683 13.1431C6.40057 13.0304 6.54292 12.461 6.60828 12.1995C6.61853 12.1581 6.6186 12.1143 6.60825 12.0729C6.5979 12.0315 6.57756 11.9933 6.54902 11.9616C6.15647 11.4085 5.94867 10.7457 5.95527 10.0675C5.95321 9.58072 6.04996 9.09858 6.23964 8.65026C6.42932 8.20195 6.708 7.79679 7.05881 7.4593C7.40962 7.12181 7.82527 6.85902 8.28058 6.68682C8.7359 6.51463 9.22143 6.43662 9.70777 6.45751C10.1633 6.43086 10.6194 6.49946 11.0469 6.65892C11.4745 6.81838 11.8641 7.0652 12.1909 7.38365C12.5177 7.70209 12.7746 8.08516 12.9451 8.50841C13.1156 8.93166 13.196 9.38581 13.1812 9.84188C13.1812 12.0863 12.0412 13.6478 10.5687 13.6478C10.3785 13.6624 10.1875 13.631 10.012 13.5562C9.83654 13.4813 9.68165 13.3653 9.56049 13.2179C9.43933 13.0706 9.35546 12.8962 9.31599 12.7095C9.27651 12.5229 9.28259 12.3294 9.33371 12.1456C9.4181 11.7954 9.52947 11.4347 9.638 11.0832C9.83491 10.4455 10.0225 9.83809 10.0225 9.37876C10.043 9.22956 10.0311 9.07769 9.98746 8.93353C9.94385 8.78938 9.8696 8.65636 9.76979 8.54358C9.66998 8.4308 9.54697 8.34093 9.40919 8.28011C9.27141 8.2193 9.12211 8.18899 8.97152 8.19126C8.14027 8.19126 7.46933 9.05813 7.46933 10.21C7.46315 10.6171 7.53992 11.0211 7.69496 11.3975L6.71527 15.5538C6.59525 16.3391 6.59499 17.1382 6.71449 17.9236C6.06392 17.6661 5.45391 17.3282 4.89671 16.9222C3.91962 16.2084 3.10317 15.2848 2.51292 14.2093C2.28071 13.7862 2.08712 13.3462 1.93299 12.8946C1.65223 12.0644 1.5 11.175 1.5 10.25Z" fill="#121212"/>
</svg>
