<svg width="21" height="19" viewBox="0 0 21 19" fill="none" xmlns="http://www.w3.org/2000/svg">
<path fill-rule="evenodd" clip-rule="evenodd" d="M4.38055 11.2696C4.42433 11.2844 4.46851 11.2948 4.51265 11.3012C4.56078 11.4144 4.62298 11.5607 4.69554 11.7318C4.87261 12.1494 5.1112 12.7143 5.35748 13.3035C5.85972 14.5052 6.36634 15.7439 6.47822 16.0985C6.61673 16.5368 6.76314 16.8348 6.92298 17.0383C7.00562 17.1435 7.1012 17.2353 7.21305 17.3049C7.26935 17.3399 7.32882 17.3686 7.3909 17.39C7.39363 17.391 7.39637 17.3919 7.3991 17.3928C7.71911 17.5136 8.01087 17.4633 8.19354 17.4018C8.29129 17.3688 8.37037 17.3291 8.42642 17.2969C8.45499 17.2804 8.47914 17.2651 8.4984 17.2521L8.50294 17.2491L11.3292 15.4866L14.5937 17.9894C14.6419 18.0263 14.6944 18.0573 14.75 18.0816C15.1422 18.2527 15.522 18.3124 15.8793 18.2636C16.2359 18.2149 16.5191 18.0651 16.7298 17.8964C16.9363 17.7313 17.0762 17.5463 17.1633 17.4089C17.2078 17.3387 17.2412 17.2766 17.2648 17.2291C17.2766 17.2052 17.2862 17.1846 17.2935 17.1681L17.3029 17.1463L17.3065 17.1377L17.308 17.1341L17.3087 17.1324L17.3093 17.1308C17.3264 17.0879 17.3396 17.0435 17.3486 16.9982L20.3288 1.97274C20.3383 1.92469 20.3431 1.87581 20.3431 1.82682C20.3431 1.38681 20.1773 0.968409 19.7875 0.714515C19.4543 0.497518 19.0832 0.488177 18.8486 0.505982C18.5955 0.525189 18.3618 0.587656 18.205 0.637572C18.1234 0.66355 18.055 0.688614 18.0056 0.707735C17.9808 0.717345 17.9605 0.72559 17.9454 0.731878L17.934 0.736665L1.22027 7.29321L1.21811 7.29399C1.20745 7.29786 1.19378 7.30297 1.17753 7.30929C1.14516 7.32189 1.1018 7.33965 1.05115 7.3626C0.952365 7.40738 0.813784 7.47734 0.671577 7.57473C0.444389 7.73031 -0.0781018 8.15641 0.00987929 8.85971C0.0800681 9.42078 0.464449 9.76537 0.698638 9.93107C0.82723 10.0221 0.949395 10.0871 1.03837 10.1295C1.07964 10.1491 1.16534 10.1839 1.20252 10.1991L1.2119 10.2029L4.38055 11.2696ZM18.5189 2.11786L18.5166 2.11888C18.5083 2.1225 18.4999 2.12596 18.4914 2.12928L1.75742 8.69378C1.74868 8.69721 1.73988 8.70047 1.73102 8.70357L1.7217 8.7071C1.711 8.71127 1.69298 8.71858 1.67035 8.72884C1.65753 8.73465 1.64414 8.74099 1.63049 8.7478C1.64924 8.75836 1.66719 8.76754 1.68314 8.77513C1.69845 8.78242 1.71012 8.7874 1.71652 8.79003L4.85915 9.84802C4.91667 9.86738 4.97029 9.89304 5.01951 9.92397L15.3963 3.84948L15.406 3.84374C15.4136 3.83927 15.4235 3.83353 15.4354 3.8268C15.459 3.81345 15.4914 3.79568 15.53 3.77603C15.6021 3.73938 15.7173 3.68497 15.8471 3.64485C15.9375 3.61692 16.2039 3.53823 16.492 3.63064C16.6698 3.68767 16.8539 3.81028 16.9737 4.01798C17.0332 4.12117 17.0649 4.22483 17.0802 4.31972C17.121 4.4692 17.1145 4.61681 17.0826 4.74424C17.0139 5.01875 16.821 5.23287 16.6455 5.39665C16.4952 5.53706 14.5498 7.41292 12.6306 9.26468C11.6736 10.1881 10.7263 11.1025 10.0182 11.7859L9.55318 12.2349L15.4251 16.7367C15.5598 16.7849 15.6394 16.7825 15.6762 16.7774C15.7201 16.7714 15.756 16.7545 15.7927 16.7252C15.8337 16.6924 15.8696 16.648 15.8965 16.6057L15.8976 16.604L18.788 2.03102C18.7451 2.04133 18.7018 2.05361 18.66 2.06691C18.6126 2.08198 18.5736 2.09634 18.5477 2.10637C18.5349 2.11134 18.5256 2.11511 18.5206 2.11719L18.5189 2.11786ZM10.0576 14.5118L8.88616 13.6136L8.6023 15.4193L10.0576 14.5118ZM7.81148 11.8314L8.97645 10.7067C9.68454 10.0232 10.6319 9.10879 11.5891 8.18524L12.5616 7.247L6.04154 11.0638L6.07653 11.1463C6.25423 11.5654 6.49388 12.1327 6.74147 12.7251C6.92659 13.168 7.12018 13.6344 7.29651 14.0662L7.57954 12.2658C7.60683 12.0922 7.69163 11.942 7.81148 11.8314Z" fill="#121212"/>
</svg>
