<svg width="20" height="20" viewBox="0 0 20 20" fill="none" xmlns="http://www.w3.org/2000/svg">
<path d="M14.0007 5.00005C14.0007 4.44776 14.4484 4.00005 15.0007 4.00005C15.553 4.00005 16.0007 4.44776 16.0007 5.00005C16.0007 5.55233 15.553 6.00005 15.0007 6.00005C14.4484 6.00005 14.0007 5.55233 14.0007 5.00005Z" fill="#121212"/>
<path fill-rule="evenodd" clip-rule="evenodd" d="M10.0007 5.25005C7.37732 5.25005 5.25067 7.37669 5.25067 10C5.25067 12.6234 7.37732 14.75 10.0007 14.75C12.624 14.75 14.7507 12.6234 14.7507 10C14.7507 7.37669 12.624 5.25005 10.0007 5.25005ZM6.75067 10C6.75067 8.20512 8.20575 6.75005 10.0007 6.75005C11.7956 6.75005 13.2507 8.20512 13.2507 10C13.2507 11.795 11.7956 13.25 10.0007 13.25C8.20575 13.25 6.75067 11.795 6.75067 10Z" fill="#121212"/>
<path fill-rule="evenodd" clip-rule="evenodd" d="M15.2589 0.833061C11.7924 0.44562 8.20902 0.44562 4.74244 0.833061C2.73038 1.05794 1.10605 2.64295 0.869497 4.66548C0.454959 8.20978 0.454959 11.7903 0.869497 15.3346C1.10605 17.3571 2.73038 18.9422 4.74244 19.167C8.20902 19.5545 11.7924 19.5545 15.2589 19.167C17.271 18.9422 18.8953 17.3571 19.1319 15.3346C19.5464 11.7903 19.5464 8.20978 19.1319 4.66548C18.8953 2.64295 17.271 1.05794 15.2589 0.833061ZM4.90905 2.32378C8.2649 1.94871 11.7365 1.94871 15.0923 2.32378C16.4224 2.47244 17.4879 3.52205 17.642 4.83973C18.043 8.26825 18.043 11.7318 17.642 15.1604C17.4879 16.478 16.4224 17.5277 15.0923 17.6763C11.7365 18.0514 8.2649 18.0514 4.90905 17.6763C3.57894 17.5277 2.51346 16.478 2.35934 15.1604C1.95834 11.7318 1.95834 8.26825 2.35934 4.83973C2.51346 3.52205 3.57894 2.47244 4.90905 2.32378Z" fill="#121212"/>
</svg>
